<svg xmlns="http://www.w3.org/2000/svg" viewBox="0 0 32 32">
  <defs>
    <linearGradient id="goldGrad" x1="0%" y1="0%" x2="100%" y2="100%">
      <stop offset="0%" stop-color="#e8c14a"/>
      <stop offset="100%" stop-color="#c48c1a"/>
    </linearGradient>
  </defs>
  <rect width="32" height="32" rx="6" fill="#0e1018"/>
  <!-- Stylised S letterform -->
  <path d="
    M 22,9.5
    C 21,7.5 19,6.5 16,6.5
    C 12,6.5 9.5,8.5 9.5,11.5
    C 9.5,14 11,15.5 14.5,16.5
    L 18,17.5
    C 20.5,18.2 22,19.5 22,22
    C 22,25 19.5,26.5 16,26.5
    C 12.5,26.5 10,25 9.5,22.5
    L 11.5,22
    C 12,23.8 13.5,24.8 16,24.8
    C 18.5,24.8 20,23.5 20,22
    C 20,20.2 18.8,19.2 16.5,18.5
    L 13,17.5
    C 10,16.5 7.5,14.8 7.5,11.5
    C 7.5,7.5 11,4.8 16,4.8
    C 19.5,4.8 22,6.2 23.5,8.5
    Z
  " fill="url(#goldGrad)"/>
</svg>
